<svg width="116" height="16" viewBox="0 0 116 16" fill="none" xmlns="http://www.w3.org/2000/svg">
<path d="M2.75 14.75L8 11.6875L13.25 14.75V2.0625C13.25 1.35156 12.6484 0.75 11.9375 0.75H4.0625C3.32422 0.75 2.75 1.35156 2.75 2.0625V14.75Z" fill="#00291B"/>
<path d="M32 0.96875C28.2539 0.96875 25.2188 4.00391 25.2188 7.75C25.2188 11.4961 28.2539 14.5312 32 14.5312C35.7461 14.5312 38.7812 11.4961 38.7812 7.75C38.7812 4.00391 35.7461 0.96875 32 0.96875ZM34.5156 9.52734L33.9688 10.2109C33.8867 10.3203 33.7773 10.4023 33.6133 10.4023C33.5312 10.4023 33.4219 10.3477 33.3672 10.293L31.5352 8.92578C31.2617 8.73438 31.125 8.43359 31.125 8.07812V3.8125C31.125 3.59375 31.3164 3.375 31.5625 3.375H32.4375C32.6562 3.375 32.875 3.59375 32.875 3.8125V7.75L34.4609 8.92578C34.543 9.00781 34.625 9.11719 34.625 9.25391C34.625 9.36328 34.5703 9.47266 34.5156 9.52734Z" fill="#00291B"/>
<path d="M59.0625 0.75H52.9375C52.1992 0.75 51.625 1.35156 51.625 2.0625V13.4375C51.625 14.1758 52.1992 14.75 52.9375 14.75H59.0625C59.7734 14.75 60.375 14.1758 60.375 13.4375V2.0625C60.375 1.35156 59.7734 0.75 59.0625 0.75ZM56 13.875C55.5078 13.875 55.125 13.4922 55.125 13C55.125 12.5352 55.5078 12.125 56 12.125C56.4648 12.125 56.875 12.5352 56.875 13C56.875 13.4922 56.4648 13.875 56 13.875ZM59.0625 10.9219C59.0625 11.1133 58.8984 11.25 58.7344 11.25H53.2656C53.0742 11.25 52.9375 11.1133 52.9375 10.9219V2.39062C52.9375 2.22656 53.0742 2.0625 53.2656 2.0625H58.7344C58.8984 2.0625 59.0625 2.22656 59.0625 2.39062V10.9219Z" fill="#00291B"/>
<path d="M76.5 9.03711V10.2129H75.3379V11.375H77.6621V9.03711H76.5ZM86.4121 5.49609C86.4121 5.39583 86.3893 5.30013 86.3438 5.20898C86.2982 5.11784 86.2344 5.04948 86.1523 5.00391L80.9023 1.6543C80.8021 1.59961 80.6927 1.57227 80.5742 1.57227C80.4648 1.57227 80.3646 1.59961 80.2734 1.6543L75.0234 5.00391C74.9414 5.04948 74.873 5.11784 74.8184 5.20898C74.7728 5.30013 74.75 5.39583 74.75 5.49609V7.4375C74.2214 7.8112 73.7975 8.28971 73.4785 8.87305C73.1595 9.45638 73 10.0944 73 10.7871C73 11.3522 73.1048 11.8854 73.3145 12.3867C73.5332 12.8789 73.8249 13.3118 74.1895 13.6855C74.5632 14.0501 74.9961 14.3418 75.4883 14.5605C75.9896 14.7702 76.5228 14.875 77.0879 14.875C77.653 14.875 78.1816 14.7702 78.6738 14.5605C79.166 14.3418 79.5944 14.0501 79.959 13.6855C80.3327 13.3118 80.6289 12.8789 80.8477 12.3867C81.0573 11.8854 81.1621 11.3522 81.1621 10.7871C81.1621 10.2038 81.0482 9.6569 80.8203 9.14648C80.5924 8.63607 80.2826 8.19401 79.8906 7.82031H81.5859C81.75 7.82031 81.8867 7.87956 81.9961 7.99805C82.1146 8.10742 82.1738 8.24414 82.1738 8.4082V12.5371C82.1738 12.7012 82.2285 12.8424 82.3379 12.9609C82.4564 13.0703 82.5977 13.125 82.7617 13.125H85.8379C85.9928 13.125 86.125 13.0703 86.2344 12.9609C86.3529 12.8424 86.4121 12.7012 86.4121 12.5371V5.49609ZM74.1621 10.7871C74.1621 10.3861 74.2396 10.0078 74.3945 9.65234C74.5495 9.29688 74.7591 8.99154 75.0234 8.73633C75.2878 8.47201 75.5977 8.26237 75.9531 8.10742C76.2995 7.95247 76.6777 7.875 77.0879 7.875C77.4889 7.875 77.8672 7.95247 78.2227 8.10742C78.5781 8.26237 78.8835 8.47201 79.1387 8.73633C79.403 8.99154 79.6126 9.29688 79.7676 9.65234C79.9225 10.0078 80 10.3861 80 10.7871C80 11.1973 79.9225 11.5755 79.7676 11.9219C79.6126 12.2773 79.403 12.5872 79.1387 12.8516C78.8835 13.1159 78.5781 13.3255 78.2227 13.4805C77.8672 13.6354 77.4889 13.7129 77.0879 13.7129C76.6777 13.7129 76.2995 13.6354 75.9531 13.4805C75.5977 13.3255 75.2878 13.1159 75.0234 12.8516C74.7591 12.5872 74.5495 12.2773 74.3945 11.9219C74.2396 11.5755 74.1621 11.1973 74.1621 10.7871Z" fill="#00291B"/>
<path d="M110.727 5.97266C110.098 6.46484 109.305 7.06641 106.516 9.08984C105.969 9.5 104.957 10.4023 104 10.4023C103.016 10.4023 102.031 9.5 101.457 9.08984C98.668 7.06641 97.875 6.46484 97.2461 5.97266C97.1367 5.89062 97 5.97266 97 6.10938V11.6875C97 12.4258 97.5742 13 98.3125 13H109.688C110.398 13 111 12.4258 111 11.6875V6.10938C111 5.97266 110.836 5.89062 110.727 5.97266ZM104 9.5C104.629 9.52734 105.531 8.70703 105.996 8.37891C109.633 5.75391 109.906 5.50781 110.727 4.85156C110.891 4.74219 111 4.55078 111 4.33203V3.8125C111 3.10156 110.398 2.5 109.688 2.5H98.3125C97.5742 2.5 97 3.10156 97 3.8125V4.33203C97 4.55078 97.082 4.74219 97.2461 4.85156C98.0664 5.50781 98.3398 5.75391 101.977 8.37891C102.441 8.70703 103.344 9.52734 104 9.5Z" fill="#00291B"/>
</svg>
